# xmcd
#
# Track frame offsets:
#	150
#	20274
#	36695
#	47978
#	62507
#	76373
#	93043
#	102574
#	111247
#	125566
#	139542
#	153002
#	163940
#	175322
#	187910
#	199305
#	212929
#	225409
#	246504
#	257880
#	268070
#	280295
#	293236
#	306609
#	322452
#	336053
#
# Disc length: 4610 seconds
#
# Revision: 0
# Processed by: cddbd v1.5.1PL0 Copyright (c) Steve Scherf et al.
# Submitted via: EasyCDDAExtractor 8.1.2.2
#
DISCID=9412001a
DTITLE=Viva Mexico - Varios
DYEAR=2005
DGENRE=Country
TTITLE0=INTRO MIX
TTITLE1=EL VIAJERO
TTITLE2=JARABE TAPATIO
TTITLE3=MEXICO LINDO
TTITLE4=MI CIUDAD
TTITLE5=MARIACHI LOCO
TTITLE6=CANCION DEL MARIACHI
TTITLE7=VIVA MEXICO
TTITLE8=GUADALAJARA
TTITLE9=CIELITO LINDO
TTITLE10=EL SON DE LA NEGRA
TTITLE11=LA RASPA
TTITLE12=LAS HALAZANAS
TTITLE13=LAS PERLITAS
TTITLE14=LA VIKINA
TTITLE15=JESUSITA EN MEXICO
TTITLE16=POPURRI (LOS TOROS)
TTITLE17=QUE CHULA ES PUEBLA
TTITLE18=ATOTONILCO
TTITLE19=LAS BICICLETAS
TTITLE20=MARIQUITA
TTITLE21=MEXICO (TIMBIRICHE)
TTITLE22=MEXICO EN LA PIEL
TTITLE23=HIMNO NACIONAL MEXICANO
TTITLE24=otro
TTITLE25=otro
EXTD=
EXTT0=
EXTT1=
EXTT2=
EXTT3=
EXTT4=
EXTT5=
EXTT6=
EXTT7=
EXTT8=
EXTT9=
EXTT10=
EXTT11=
EXTT12=
EXTT13=
EXTT14=
EXTT15=
EXTT16=
EXTT17=
EXTT18=
EXTT19=
EXTT20=
EXTT21=
EXTT22=
EXTT23=
EXTT24=
EXTT25=
PLAYORDER=
